<svg id="Layer_1" data-name="Layer 1" xmlns="http://www.w3.org/2000/svg" viewBox="0 0 392.29 180.93"><defs><style>.cls-1{fill:#ffc82d;}.cls-2{fill:#fff;}</style></defs><path class="cls-1" d="M133.63,149.78c-2.69-2.74-10.46-10.86-13-15.71l0,0c-.41-.6-7.77-11.21-10.84-14.59l0,0c-.32-.43-6.16-8.14-6.92-9.58a.48.48,0,0,1-.06-.28c0-.8,0-5.17-5.3-10.94a.58.58,0,0,1-.14-.49,34.09,34.09,0,0,0,.67-8,.59.59,0,0,1,.18-.45c.93-.85,5.07-5.13,11.6-18.44A.6.6,0,0,1,110,71c1-.54,6.66-4.27,3.81-20.62v0a8.53,8.53,0,0,1,2.7-7.84.55.55,0,0,1,.5-.15,19.09,19.09,0,0,0,8.07-.08.56.56,0,0,0,.27-.91c-1.05-1.22-3.49-3.79-5.86-4.57a.56.56,0,0,1-.36-.39c-.36-1.32-2.71-6.56-17.24-6.25a.71.71,0,0,0-.2,0,22.8,22.8,0,0,0-11,10.33.62.62,0,0,1-.14.18C89.46,41.6,78.15,51.18,76,61.82a.62.62,0,0,1-.1.22A49.83,49.83,0,0,0,69.11,75a.56.56,0,0,1-.9.24,50,50,0,0,1-8.84-10.64.57.57,0,0,1-.07-.22c-.09-.62-.64-3.53-3.62-3.73a.49.49,0,0,1-.36-.17c-1.09-1.16-8-8.51-14.11-14a.76.76,0,0,1-.11-.14,7.88,7.88,0,0,0-1.4-2,.55.55,0,0,0-.71,0l-2.44,2.1,0,0c-.18.13-1.6,1.16,0,1.88a.57.57,0,0,1,.13.08c1.27,1.08,23.15,19.72,25.6,28.77a.58.58,0,0,0,.23.32c.9.6,4.92,3.3,5,4.12a112.43,112.43,0,0,0-1.08,14.44.55.55,0,0,1-.11.33c-.52.71-2.71,3.87-2.68,6.23a.51.51,0,0,1-.18.42c-1.43,1.3-10.34,9.67-10.43,16.67a.43.43,0,0,1,0,.19c-.35.9-3,8.17,6.86,1.28a.55.55,0,0,1,.75.1,18.73,18.73,0,0,1,2.55,3.6.55.55,0,0,0,.34.34c1,.35,4.52.59,5.63-11.49a.19.19,0,0,1,0-.08c.16-.67,2.56-9.87,14.48-16.39a.56.56,0,0,1,.67.1c1.69,1.76,10.2,10.68,13,15.29a.53.53,0,0,0,.22.2c.54.28,2.48,1.33,2.69,2a.76.76,0,0,0,.11.22c1.24,1.43,14,16.4,16.38,23a.54.54,0,0,1,0,.45c-.63,1.24-3.43,7.73,5.68,8a.61.61,0,0,1,.37.15l4.25,4a.58.58,0,0,0,.39.15l6-.07A.56.56,0,0,0,133.63,149.78ZM94.14,101.55a.78.78,0,0,1-1.1,0L86.3,94.34a.79.79,0,0,1-.19-.72,2.56,2.56,0,0,1,.7-1.2.77.77,0,0,1,.71-.19,5.39,5.39,0,0,0,3.64-.13.83.83,0,0,1,.38-.07,2.23,2.23,0,0,1,1.29.37.72.72,0,0,1,.28.58l.09,3.71c-.16,1,1,1.9,1.56,2.25a.74.74,0,0,1,.35.54A2.55,2.55,0,0,1,94.14,101.55Z"/><path class="cls-2" d="M168.75,71.79h10.86c0,4.17-.85,7.13-3.38,9.47a10.28,10.28,0,0,1-7.42,2.65,10.92,10.92,0,0,1-8.08-3.12,10.62,10.62,0,0,1-3-7.61,11,11,0,0,1,3.16-7.9,12.25,12.25,0,0,1,13.86-1.67,10.28,10.28,0,0,1,3.75,4.33l-5.2,2.14A5.16,5.16,0,0,0,171.75,68a4.39,4.39,0,0,0-2.94-1,5.09,5.09,0,0,0-3.6,1.45,7.11,7.11,0,0,0-1.83,4.83,6.6,6.6,0,0,0,1.68,4.55,5,5,0,0,0,3.85,1.61,4.51,4.51,0,0,0,3-1,3.73,3.73,0,0,0,1.29-2.34h-4.48Z"/><path class="cls-2" d="M204.58,81.07a12.58,12.58,0,0,1-16.61,0,11,11,0,0,1,0-15.75,12.58,12.58,0,0,1,16.61,0,11,11,0,0,1,0,15.75ZM192,69.17a5.78,5.78,0,0,0-1.67,4.13A5.35,5.35,0,0,0,192,77.22a6,6,0,0,0,4.26,1.67,5.74,5.74,0,0,0,4.23-1.64,5.8,5.8,0,0,0,1.71-4,5.69,5.69,0,0,0-1.71-4,6.26,6.26,0,0,0-4.23-1.68A6.07,6.07,0,0,0,192,69.17Z"/><path class="cls-2" d="M219.34,62.66V79.08h6.57v4.64h-12V62.66Z"/><path class="cls-2" d="M231.24,83.72V62.66h7.17c2.11,0,5.65.29,8.36,2.91a10.26,10.26,0,0,1,2.94,7.67A9.67,9.67,0,0,1,247,80.53a11.39,11.39,0,0,1-8.08,3.19Zm5.46-4.64h1.11a6.33,6.33,0,0,0,4.61-1.51A5.77,5.77,0,0,0,244,73.24a6.3,6.3,0,0,0-1.64-4.61A6.14,6.14,0,0,0,238,67.31H236.7Z"/><path class="cls-2" d="M267.76,67.31h-6.59v3.5h6v4.64h-6v8.27H255.7V62.66h12.06Z"/><path class="cls-2" d="M279,62.66V83.72h-5.46V62.66Z"/><path class="cls-2" d="M285.94,83.72V62.66h5.46l10.07,12.89V62.66h5.46V83.72h-5.46L291.4,70.84V83.72Z"/><path class="cls-2" d="M329,83.15a13,13,0,0,1-4.73,1A11.5,11.5,0,0,1,316.11,81a11.06,11.06,0,0,1-3.19-7.67,11,11,0,0,1,11.15-11.05A13.11,13.11,0,0,1,329,63.39v6.54a5.85,5.85,0,0,0-4.76-2.31A5.36,5.36,0,0,0,320.44,69a5.61,5.61,0,0,0,3.79,9.88A6.15,6.15,0,0,0,329,76.68Z"/><path class="cls-2" d="M340.45,70.53h7.89V62.66h5.5V83.72h-5.5V75.2h-7.89v8.52H335V62.66h5.46Z"/><path class="cls-2" d="M162.41,97.21,167.46,110l5.11-12.82h5.94l-9,21.06h-4.26l-8.84-21.06Z"/><path class="cls-2" d="M195.14,114.73H187.5l-1.42,3.54H180.3l8.08-21.06h6l7.92,21.06h-5.84Zm-1.45-4.17-2.37-6.82L189,110.56Z"/><path class="cls-2" d="M222.19,117.7a13,13,0,0,1-4.74,1,11.41,11.41,0,0,1-8.14-3.16,11,11,0,0,1-3.19-7.67,11,11,0,0,1,11.14-11,13.15,13.15,0,0,1,4.93,1.07v6.54a5.87,5.87,0,0,0-4.77-2.31,5.36,5.36,0,0,0-3.79,1.39,5.91,5.91,0,0,0-1.83,4.33,5.41,5.41,0,0,0,5.62,5.56,6.21,6.21,0,0,0,4.77-2.21Z"/><path class="cls-2" d="M241.66,114.73H234l-1.42,3.54h-5.78l8.09-21.06h6l7.93,21.06H243Zm-1.45-4.17-2.37-6.82-2.3,6.82Z"/><path class="cls-2" d="M261.39,101.85v16.42h-5.46V101.85h-4.49V97.21h14.43v4.64Z"/><path class="cls-2" d="M276.92,97.21v21.06h-5.47V97.21Z"/><path class="cls-2" d="M303.46,115.61a12.57,12.57,0,0,1-16.6,0,11,11,0,0,1,0-15.75,12.57,12.57,0,0,1,16.6,0,11,11,0,0,1,0,15.75Zm-12.56-11.9a5.77,5.77,0,0,0-1.68,4.14,5.35,5.35,0,0,0,1.68,3.91,6,6,0,0,0,4.26,1.68,5.72,5.72,0,0,0,5.93-5.69,5.68,5.68,0,0,0-1.7-4,6.33,6.33,0,0,0-4.23-1.67A6,6,0,0,0,290.9,103.71Z"/><path class="cls-2" d="M313.4,118.27V97.21h5.46l10.07,12.88V97.21h5.46v21.06h-5.46l-10.07-12.89v12.89Z"/><path class="cls-2" d="M343.35,112a7.37,7.37,0,0,0,4.83,2.15,2.78,2.78,0,0,0,2.12-.73,1.9,1.9,0,0,0,.54-1.32,1.67,1.67,0,0,0-.6-1.27,7.7,7.7,0,0,0-2.72-1.1l-1.42-.44a6.93,6.93,0,0,1-3-1.71,5.31,5.31,0,0,1-1.2-3.72,6.89,6.89,0,0,1,1.93-5.09,7.42,7.42,0,0,1,5.39-2,14.83,14.83,0,0,1,6.51,1.71l-2.18,4.26a5.57,5.57,0,0,0-3.6-1.42,2.65,2.65,0,0,0-1.8.63,1.55,1.55,0,0,0-.54,1.14,1.43,1.43,0,0,0,.29,1,3.45,3.45,0,0,0,1.83.94l1.67.51a8,8,0,0,1,3.82,2.08,5,5,0,0,1,1.36,3.76,7.11,7.11,0,0,1-2,5.3c-1.8,1.8-4,2.15-6.22,2.15a11.17,11.17,0,0,1-4.13-.7,14.23,14.23,0,0,1-3.19-1.67Z"/></svg>